<?xml version="1.0" ?><svg height="32px" style="enable-background:new 0 0 32 32;" version="1.1" viewBox="0 0 32 32" width="32px" xml:space="preserve" xmlns="http://www.w3.org/2000/svg" xmlns:xlink="http://www.w3.org/1999/xlink"><style type="text/css">
	.st0{fill:none;stroke:#434345;stroke-width:2;stroke-linecap:round;stroke-linejoin:round;stroke-miterlimit:10;}
	.st1{fill:#434345;}
</style><g id="Layer_2"/><g id="Layer_1"><g><path class="st0" d="M7.06066,8V6.5c0-3.03223,2.46729-5.5,5.5-5.5s5.5,2.46777,5.5,5.5V8"/><path class="st0" d="M27.81847,12.01295c-1.49648-0.14979-2.75781,1.0213-2.75781,2.48705c0-1.38074-1.11926-2.5-2.5-2.5    s-2.5,1.11926-2.5,2.5c0-1.38074-1.11926-2.5-2.5-2.5s-2.5,1.11926-2.5,2.5l0.00001-7.85744    c0-1.30773-0.94098-2.49937-2.2422-2.62961C11.322,3.86316,10.06066,5.03425,10.06066,6.5V17v3v0.46448L6.20708,16.6109    c-0.97631-0.97631-2.55921-0.97631-3.53552,0l0,0c-0.97631,0.97631-0.97631,2.55921,0,3.53552l7.3891,7.3891V28v3h17v-2.17157    c0-0.53043,0.21071-1.03914,0.58579-1.41421l1.82843-1.82843c0.37507-0.37507,0.58579-0.88378,0.58579-1.41421V22.5V17    l0.00001-2.35744C30.06067,13.33484,29.1197,12.14319,27.81847,12.01295z"/></g></g></svg>